<?xml version="1.0" encoding="UTF-8" standalone="no"?>
<!-- Creator: CorelDRAW -->

<svg
   xmlns:dc="http://purl.org/dc/elements/1.1/"
   xmlns:cc="http://creativecommons.org/ns#"
   xmlns:rdf="http://www.w3.org/1999/02/22-rdf-syntax-ns#"
   xmlns:svg="http://www.w3.org/2000/svg"
   xmlns="http://www.w3.org/2000/svg"
   xmlns:sodipodi="http://sodipodi.sourceforge.net/DTD/sodipodi-0.dtd"
   xmlns:inkscape="http://www.inkscape.org/namespaces/inkscape"
   xml:space="preserve"
   width="600px"
   height="300px"
   style="shape-rendering:geometricPrecision; text-rendering:geometricPrecision; image-rendering:optimizeQuality; fill-rule:evenodd; clip-rule:evenodd"
   viewBox="0 0 600 450"
   version="1.1"
   id="svg20"
   sodipodi:docname="brick.svg"
   inkscape:version="0.92.4 (unknown)"
   inkscape:export-filename="/home/tt/ubuntu/VSCodeProjects/BucketGame/brick.png"
   inkscape:export-xdpi="64"
   inkscape:export-ydpi="64"><metadata
   id="metadata24"><rdf:RDF><cc:Work
       rdf:about=""><dc:format>image/svg+xml</dc:format><dc:type
         rdf:resource="http://purl.org/dc/dcmitype/StillImage" /></cc:Work></rdf:RDF></metadata><sodipodi:namedview
   pagecolor="#ffffff"
   bordercolor="#666666"
   borderopacity="1"
   objecttolerance="10"
   gridtolerance="10"
   guidetolerance="10"
   inkscape:pageopacity="0"
   inkscape:pageshadow="2"
   inkscape:window-width="1855"
   inkscape:window-height="1056"
   id="namedview22"
   showgrid="false"
   inkscape:zoom="0.48833333"
   inkscape:cx="61.433447"
   inkscape:cy="150"
   inkscape:window-x="65"
   inkscape:window-y="24"
   inkscape:window-maximized="1"
   inkscape:current-layer="svg20" />
 <defs
   id="defs4">
  <style
   type="text/css"
   id="style2">
   <![CDATA[
    .fil0 {fill:#1F1A17}
    .fil1 {fill:#7B0101}
    .fil3 {fill:#AD0101}
    .fil2 {fill:#FF0101}
   ]]>
  </style>
 <filter
   style="color-interpolation-filters:sRGB;"
   inkscape:label="Greyscale"
   id="filter880"><feColorMatrix
     values="0.21 0.72 0.072 0.39 0 0.21 0.72 0.072 0.39 0 0.21 0.72 0.072 0.39 0 0 0 0 1 0 "
     id="feColorMatrix878" /></filter></defs>
 <g
   id="Livello_x0020_1"
   style="filter:url(#filter880)">
  <metadata
   id="CorelCorpID_0Corel-Layer" />
  <g
   id="_66186200">
   <path
   id="_78165160"
   class="fil0"
   d="M444.891 64.6215l74.715 54.4665 -30.9825 162.674 -310.245 135.033 -71.7345 -128.548 -26.2485 -162.501 74.55 -21.588c17.9925,-19.7865 52.974,-25.1505 77.8875,-22.329l87.156 -25.1295c7.362,-8.601 17.1165,-13.9605 28.05,-16.794 11.7555,-3.0465 24.7335,-3.237 37.338,-2.0085l16.266 -4.692 15.714 11.448c10.3035,4.0275 21.819,10.155 27.534,19.9695z" />
   <polygon
   id="_77981976"
   class="fil1"
   points="118.152,284.245 183.56,401.452 166.689,243.159 93.9345,134.318 " />
   <path
   id="_78161224"
   class="fil1"
   d="M323.058 104.251c3.714,15.945 21.8895,27.888 39.687,29.37 4.077,-1.476 3.969,-23.0655 3.93,-28.4565l-1.548 -0.9135c-6.183,-0.1365 -20.3745,-6.186 -24.63,-8.706 -3.135,-1.857 -7.467,-4.188 -9.6525,-7.0185 -0.9285,-1.2015 -3.6465,-4.1955 -3.9795,-4.7505 -1.194,-1.989 -0.528,-3.2835 -2.22,-5.718l-1.587 26.193z" />
   <path
   id="_78257392"
   class="fil1"
   d="M177.803 184.421l-2.382 -30.162c-11.7735,-6.2295 -13.572,-7.1985 -19.8435,-19.05l-0.1575 2.9055 0.1125 2.4195 -0.963 -0.2295c0.6945,9.249 1.9845,19.4145 2.619,21.8685 2.256,8.724 11.8545,20.208 20.6145,22.248z" />
   <path
   id="_73098640"
   class="fil2"
   d="M237.798 92.8845c7.2645,0.276 17.3895,3.4305 25.539,8.7915 9.105,5.9895 15.8745,14.6385 16.065,23.214l0.828 30.162c-3.105,4.5855 -1.6335,7.9305 -5.8065,13.2795 -3.291,4.221 -4.1175,6.2655 -8.8215,9.4335 -7.3785,4.971 -14.8035,9.5445 -24.7545,11.7585 -13.8045,3.0705 -17.247,3.048 -32.079,2.8245 -7.713,-0.117 -26.5215,-3.234 -29.379,-7.1325l-0.7935 0 -0.7935 -0.795c-8.76,-2.04 -18.3585,-13.524 -20.6145,-22.248 -1.161,-4.488 -4.512,-34.755 -2.4045,-38.076l3.5145 -8.418 -64.3635 18.639 72.7545 108.842 339.707 -118.851 -67.5075 -49.212 0.057 2.9625 -0.0315 3.9645 -0.762 7.1475 -3.1755 21.432 -0.747 2.3055c-2.238,3.9915 -3.6255,8.07 -10.992,13.737 -4.383,3.372 -11.9145,5.3745 -17.8095,6.7965 -9.4575,2.28 -34.0455,5.6595 -42.6825,0.18 -17.7975,-1.482 -35.973,-13.425 -39.687,-29.37 -2.3625,-3.723 0.432,-32.373 1.4925,-36.4275l-86.7525 25.0605z" />
   <path
   id="_73127032"
   class="fil2"
   d="M155.577 135.209c6.2715,11.8515 8.07,12.8205 19.8435,19.05 31.0695,16.44 100.327,5.8005 103.188,-28.575 -1.8585,-2.6745 -1.38,-4.2945 -2.1765,-7.35 -0.7365,-2.8245 -2.2095,-4.026 -3.8445,-6.474 -2.2935,-3.4335 -7.4265,-7.47 -11.157,-9.48 -3.6375,-2.574 -10.725,-4.779 -17.3295,-6.39 -19.356,-4.7205 -41.133,-3.807 -59.7015,3.747 -6.4665,2.631 -12.4185,4.779 -17.127,9.0675 -9.156,8.337 -10.8615,14.7225 -11.6955,26.4045z" />
   <path
   id="_73007144"
   class="fil2"
   d="M325.803 71.64c-0.3855,2.139 -0.771,4.2795 -1.158,6.4185 1.692,2.4345 1.026,3.729 2.22,5.718 0.333,0.555 3.051,3.549 3.9795,4.7505 2.1855,2.8305 6.5175,5.1615 9.6525,7.0185 4.2555,2.52 18.447,8.5695 24.63,8.706 14.649,3.414 28.2165,2.208 42.87,0.0075 5.7495,-0.8625 12.807,-3.7575 17.7345,-6.0765 5.5335,-2.604 7.962,-7.971 11.6265,-12.186 -0.1185,-1.416 -0.6135,-8.721 -0.912,-10.2015 -1.872,-9.261 -10.9485,-14.067 -18.6465,-17.865 -4.0335,-1.9905 -11.07,-4.5105 -15.9675,-5.4645 -14.6325,-2.8515 -34.4145,-5.187 -50.7825,-0.945 -9.6765,2.508 -23.289,9.2745 -25.2465,20.1195z" />
   <path
   id="_77828512"
   class="fil2"
   d="M391.725 48.555c5.5215,0.7845 10.926,2.223 16.248,4.107l-8.6475 -6.3 -7.6005 2.193z" />
   <polygon
   id="_78100448"
   class="fil3"
   points="166.689,243.159 183.56,401.452 478.022,273.289 506.395,124.308 " />
   <path
   id="_73209160"
   class="fil3"
   d="M278.608 125.684c-2.8605,34.3755 -72.1185,45.015 -103.188,28.575l2.382 30.162 0.7935 0.795 0.7935 0c2.8575,3.8985 21.666,7.0155 29.379,7.1325 14.832,0.2235 18.2745,0.246 32.079,-2.8245 9.951,-2.214 17.376,-6.7875 24.7545,-11.7585 4.704,-3.168 5.5305,-5.2125 8.8215,-9.4335 4.173,-5.349 2.7015,-8.694 5.8065,-13.2795l-0.828 -30.162 -0.7935 0.7935z" />
   <path
   id="_77674488"
   class="fil3"
   d="M365.127 104.251l1.548 0.9135c0.039,5.391 0.147,26.9805 -3.93,28.4565 8.637,5.4795 33.225,2.1 42.6825,-0.18 5.895,-1.422 13.4265,-3.4245 17.8095,-6.7965 7.3665,-5.667 8.634,-9.2805 10.992,-13.737l0.747 -2.3055 3.1755 -21.432 -0.7935 -3.174c-3.6645,4.215 -6.093,9.582 -11.6265,12.186 -4.9275,2.319 -11.985,5.214 -17.7345,6.0765 -14.6535,2.2005 -28.221,3.4065 -42.87,-0.0075z" />
  </g>
 </g>
</svg>