<?xml version="1.0" encoding="UTF-8" standalone="no"?>
<!-- Generator: Adobe Illustrator 10.0, SVG Export Plug-In . SVG Version: 3.0.0 Build 77)  -->

<svg
   xmlns:i="http://ns.adobe.com/AdobeIllustrator/10.0/"
   xmlns:dc="http://purl.org/dc/elements/1.1/"
   xmlns:cc="http://creativecommons.org/ns#"
   xmlns:rdf="http://www.w3.org/1999/02/22-rdf-syntax-ns#"
   xmlns:svg="http://www.w3.org/2000/svg"
   xmlns="http://www.w3.org/2000/svg"
   xmlns:sodipodi="http://sodipodi.sourceforge.net/DTD/sodipodi-0.dtd"
   xmlns:inkscape="http://www.inkscape.org/namespaces/inkscape"
   id="svg2"
   version="1.1"
   space="preserve"
   sodipodi:docname="Rubber_Duck.svg"
   i:viewOrigin="112 549"
   i:pageBounds="0 792 612 0"
   viewBox="0 0 483.21526 473.24209"
   enable-background="new 0 0 387.721 307.91"
   i:rulerOrigin="0 0"
   inkscape:version="0.92.4 (unknown)"
   overflow="visible"
   inkscape:export-filename="/home/tt/ubuntu/VSCodeProjects/BucketGame/Rubber_Duck.png"
   inkscape:export-xdpi="123.77643"
   inkscape:export-ydpi="123.77643"
   width="483.21527"
   height="473.2421"
   style="overflow:visible">
  <defs
     id="defs15" />
  <sodipodi:namedview
     id="namedview45"
     bordercolor="#666666"
     inkscape:pageshadow="2"
     guidetolerance="10"
     pagecolor="#ffffff"
     gridtolerance="10"
     inkscape:window-maximized="1"
     inkscape:zoom="0.5"
     objecttolerance="10"
     borderopacity="1"
     inkscape:current-layer="svg2"
     inkscape:cx="107.39499"
     inkscape:cy="71.189868"
     inkscape:window-y="24"
     inkscape:window-x="65"
     inkscape:window-width="1855"
     showgrid="false"
     inkscape:pageopacity="0"
     inkscape:window-height="1056"
     fit-margin-top="100"
     fit-margin-left="100"
     fit-margin-bottom="100"
     fit-margin-right="100" />
  <path
     id="path3061"
     sodipodi:nodetypes="cscscsscscsssscscssssc"
     style="color:#000000;fill:#f2c802;fill-rule:evenodd;enable-background:accumulate"
     inkscape:connector-curvature="0"
     d="m 209.5373,108.46265 c 22.691,0.47765 43.812,12.181 54.375,32.594 13.785,26.64 5.0357,59.348 -19.188,78.688 -3.6924,3.9164 -5.2243,8.6781 -3.5313,12.625 1.7164,4.0014 6.2987,6.1939 12.148,5.805 5.849,-0.38891 24.589,-5.362 33.759,-6.8675 9.8803,-1.6221 13.566,-3.6941 28.312,-10.625 11.746,-5.5206 14.901,-18.752 19.495,-23.969 3.2787,-5.0128 8.3549,-7.8396 13.625,-6.8438 4.0751,0.77006 6.6126,2.1922 8.5722,5.6548 0,0 11.004,21.248 12.771,25.314 1.7678,4.0659 10.705,20.151 12.562,36.219 13.291,114.98 -147.01,127.1 -227.56,109.81 -30.801,-6.6092 -54.625,-32.51 -54.625,-65.094 0,-24.429 13.254,-45.725 32.969,-57.156 6.1636,-4.1994 11.526,-9.6119 15.688,-16.219 2.2955,-3.6448 4.1099,-7.4732 5.4687,-11.406 -3.9839,-4.0667 -7.4267,-8.7253 -10.156,-14 -15.86,-30.649 -1.9284,-69.365 31.125,-86.469 10.329,-5.3451 21.309,-7.9459 32,-8.0625 0.735,-0.008 1.4555,-0.0154 2.1875,0 z" />
  <path
     id="path4022"
     sodipodi:nodetypes="csscssc"
     style="color:#000000;fill:#da9c16;fill-rule:evenodd;enable-background:accumulate"
     inkscape:connector-curvature="0"
     d="m 116.8813,257.71765 c -5.5781,9.6818 -8.7813,20.921 -8.7813,32.906 0,32.584 23.824,58.485 54.625,65.094 60.909,13.069 163.52,9.3206 208.65,-43 -38.071,62.918 -151.76,68.101 -216.75,54.156 -30.801,-6.6092 -54.625,-32.51 -54.625,-65.094 0,-16.948 6.3852,-32.378 16.875,-44.062 z" />
  <path
     id="path4046"
     style="color:#000000;fill:#da9c16;fill-rule:evenodd;enable-background:accumulate"
     inkscape:connector-curvature="0"
     d="m 178.3373,149.77565 c -10.804,0 -19.563,8.7587 -19.563,19.562 0,10.804 8.7587,19.563 19.563,19.563 10.8043,0 19.562,-8.7587 19.562,-19.563 0,-4.3485 -1.4436,-8.3457 -3.8437,-11.594 1.7377,2.5957 2.7813,5.7355 2.7813,9.0938 0,9.0213 -7.3225,16.312 -16.344,16.312 -9.0213,0 -16.344,-7.2912 -16.344,-16.312 0,-9.0213 7.3225,-16.344 16.344,-16.344 2.745,0 5.323,0.67871 7.5938,1.875 -2.8687,-1.6508 -6.2027,-2.5938 -9.75,-2.5938 z" />
  <circle
     id="path3945"
     style="color:#000000;fill:#393228;fill-rule:evenodd;stroke-width:0.82502002;enable-background:accumulate"
     transform="scale(-1,1)"
     cx="-180.49646"
     cy="166.82466"
     r="16.334562" />
  <path
     id="path4013"
     d="m 156.2573,188.50765 c -1.1814,-3.0248 -7.3786,-7.3083 -12.744,-5.9387 -1.2535,0.32 -4.8035,-6.2795 -6.0129,-6.1347 -3.2334,0.38699 -5.5148,3.4503 -6.9155,4.8191 -3.8967,3.8079 -18.111,2.1935 -21.747,3.0582 -5.258,7.3877 12.256,20.214 20.997,14.792 4.6405,-1.4876 1.7152,0.77167 0.7613,1.7879 -5.8549,6.2372 -11.979,10.214 -9.3261,12.867 5.3555,5.3555 21.872,1.1836 28.092,-5.0357 9.7712,-9.7712 8.2285,-16.8 6.8947,-20.215 z"
     sodipodi:nodetypes="ssssccssss"
     style="color:#000000;fill:#b94519;fill-rule:evenodd;enable-background:accumulate"
     inkscape:connector-curvature="0" />
  <path
     id="path4020"
     sodipodi:nodetypes="cc"
     style="fill:none;stroke:#f2c802;stroke-width:15;stroke-linecap:round;stroke-linejoin:round"
     inkscape:connector-curvature="0"
     d="m 203.1873,116.05065 c -10.162,0 -20.457,-0.72486 -28.207,-8.4749" />
  <path
     id="path4032"
     sodipodi:nodetypes="csssccc"
     style="fill:none;stroke:#ffffff;stroke-width:5;stroke-linecap:round;stroke-linejoin:round"
     inkscape:connector-curvature="0"
     d="m 256.5373,247.51765 c 0,0 12.731,-1.7004 28.299,-5.1631 1.3544,-0.30126 2.7303,-0.61586 4.1212,-0.94383 4.0622,-0.95789 8.2519,-2.0299 12.407,-3.2171 3.0337,-0.86679 2.9295,-0.687 6.2232,-1.9778 m 9.8646,-3.9739 c 10.746,-4.4328 16.943,-8.3707 17.981,-10.186" />
  <circle
     id="path4049"
     style="color:#000000;fill:#ffffff;fill-rule:evenodd;stroke-width:2.75;enable-background:accumulate"
     cx="181.92383"
     cy="162.52414"
     r="7.8895564" />
  <path
     id="path4051"
     sodipodi:nodetypes="cccsc"
     style="color:#000000;fill:none;stroke:#ffffff;stroke-width:5;stroke-linecap:round;stroke-linejoin:round;enable-background:accumulate"
     inkscape:connector-curvature="0"
     d="m 227.0873,119.93265 c 0,0 5.8273,1.4482 12.15,6.8434 m 4.9203,4.3752 c 0.7831,0.77257 1.5804,1.6071 2.3866,2.5081 8.6217,9.636 13.483,20.107 13.483,26.193" />
  <metadata
     id="metadata12">
    <rdf:RDF>
      <cc:Work>
        <dc:format>image/svg+xml</dc:format>
        <dc:type
           rdf:resource="http://purl.org/dc/dcmitype/StillImage" />
        <cc:license
           rdf:resource="http://creativecommons.org/publicdomain/zero/1.0/" />
        <dc:publisher>
          <cc:Agent
             rdf:about="http://openclipart.org/">
            <dc:title>Openclipart</dc:title>
          </cc:Agent>
        </dc:publisher>
        <dc:title>Rubber Duck</dc:title>
        <dc:date>2011-09-08T00:37:20</dc:date>
        <dc:description>Rubber Duck</dc:description>
        <dc:source>https://openclipart.org/detail/159499/rubber-duck-by-printerkiller</dc:source>
        <dc:creator>
          <cc:Agent>
            <dc:title>PrinterKiller</dc:title>
          </cc:Agent>
        </dc:creator>
        <dc:subject>
          <rdf:Bag>
            <rdf:li>Rubber Duck bath shower toy</rdf:li>
          </rdf:Bag>
        </dc:subject>
      </cc:Work>
      <cc:License
         rdf:about="http://creativecommons.org/publicdomain/zero/1.0/">
        <cc:permits
           rdf:resource="http://creativecommons.org/ns#Reproduction" />
        <cc:permits
           rdf:resource="http://creativecommons.org/ns#Distribution" />
        <cc:permits
           rdf:resource="http://creativecommons.org/ns#DerivativeWorks" />
      </cc:License>
    </rdf:RDF>
  </metadata>
</svg>
