<?xml version="1.0" encoding="UTF-8" standalone="no"?>
<!-- Generator: Adobe Illustrator 19.0.0, SVG Export Plug-In . SVG Version: 6.00 Build 0)  -->

<svg
   xmlns:dc="http://purl.org/dc/elements/1.1/"
   xmlns:cc="http://creativecommons.org/ns#"
   xmlns:rdf="http://www.w3.org/1999/02/22-rdf-syntax-ns#"
   xmlns:svg="http://www.w3.org/2000/svg"
   xmlns="http://www.w3.org/2000/svg"
   xmlns:sodipodi="http://sodipodi.sourceforge.net/DTD/sodipodi-0.dtd"
   xmlns:inkscape="http://www.inkscape.org/namespaces/inkscape"
   version="1.1"
   id="Layer_1"
   x="0px"
   y="0px"
   viewBox="0 0 316.99999 320.29998"
   xml:space="preserve"
   sodipodi:docname="yellow_bucket.svg"
   width="317"
   height="320.29999"
   inkscape:version="0.92.4 (5da689c313, 2019-01-14)"><metadata
   id="metadata59"><rdf:RDF><cc:Work
       rdf:about=""><dc:format>image/svg+xml</dc:format><dc:type
         rdf:resource="http://purl.org/dc/dcmitype/StillImage" /><dc:title /></cc:Work></rdf:RDF></metadata><defs
   id="defs57" /><sodipodi:namedview
   pagecolor="#ffffff"
   bordercolor="#666666"
   borderopacity="1"
   objecttolerance="10"
   gridtolerance="10"
   guidetolerance="10"
   inkscape:pageopacity="0"
   inkscape:pageshadow="2"
   inkscape:window-width="1920"
   inkscape:window-height="1017"
   id="namedview55"
   showgrid="false"
   fit-margin-top="0"
   fit-margin-left="0"
   fit-margin-right="0"
   fit-margin-bottom="0"
   inkscape:zoom="1.5622298"
   inkscape:cx="-24.436293"
   inkscape:cy="172.59999"
   inkscape:window-x="-8"
   inkscape:window-y="-8"
   inkscape:window-maximized="1"
   inkscape:current-layer="Layer_1" />

<path
   style="fill:#eaea54;fill-opacity:1"
   d="M 296.2,60.7 H 20.8 l 26.5,231.1 h 0.1 c 1.2,15.8 50.6,28.5 111.2,28.5 60.7,0 110,-12.7 111.2,-28.5 v 0 z"
   id="path4"
   inkscape:connector-curvature="0" />
<path
   style="fill:#fbfbdd;fill-opacity:1"
   d="M 158.7,177.7 C 121.5,177.7 79.4,175 48.7,155 16.4,133.9 0.7,96.6 0.7,40.9 h 7.2 c 0,107.9 57.7,129.6 150.7,129.6 36,0 76.7,-2.6 106,-21.8 30.1,-19.7 44.7,-55 44.7,-107.8 h 7.2 c 0,55.4 -15.7,92.7 -47.9,113.8 -30.8,20.2 -72.8,23 -109.9,23 z"
   id="path6"
   inkscape:connector-curvature="0" />
<path
   style="fill:#d8d827;fill-opacity:1"
   d="m 201.4,174.6 c 0,5.2 -4.2,9.4 -9.4,9.4 h -67.5 c -5.2,0 -9.4,-4.2 -9.4,-9.4 v -3.1 c 0,-5.2 4.2,-9.4 9.4,-9.4 H 192 c 5.2,0 9.4,4.2 9.4,9.4 z"
   id="path8"
   inkscape:connector-curvature="0" />
<path
   style="fill:#e0e044;fill-opacity:1"
   d="m 34.7,66.3 c 26,10.4 59.1,20.9 123.8,20.9 67.8,0 97.9,-10.4 123.8,-20.9 -29,7.9 -73.7,12.9 -123.8,12.9 -50.1,0 -94.8,-5 -123.8,-12.9 z"
   id="path10"
   inkscape:connector-curvature="0" />
<path
   style="fill:#eaea49;fill-opacity:1"
   d="M 317,33.4 H 0 v 11.3 h 0.1 c 0,0.1 0,0.2 0,0.3 0,18.9 70.9,34.2 158.4,34.2 87.5,0 158.4,-15.3 158.4,-34.2 0,-0.1 0,-0.2 0,-0.3 v 0 -11.3 z"
   id="path12"
   inkscape:connector-curvature="0" />
<path
   style="fill:#efef65;fill-opacity:1"
   d="M 316.9,34.2 C 316.9,15.3 246,0 158.5,0 71,0 0.1,15.3 0.1,34.2 0.1,53.1 71,68.4 158.5,68.4 246,68.4 316.9,53.1 316.9,34.2 Z"
   id="path14"
   inkscape:connector-curvature="0" />
<path
   style="fill:#d8d827;fill-opacity:1"
   d="M 292,34.2 C 292,18.3 232.2,5.4 158.5,5.4 84.8,5.4 25,18.3 25,34.2 c 0,5.5 7.1,10.6 19.4,15 23.4,8.3 204.7,8.3 228.1,0 12.4,-4.4 19.5,-9.5 19.5,-15 z"
   id="path16"
   inkscape:connector-curvature="0" />

<g
   id="g24"
   transform="translate(-89.6,-100.4)">
</g>
<g
   id="g26"
   transform="translate(-89.6,-100.4)">
</g>
<g
   id="g28"
   transform="translate(-89.6,-100.4)">
</g>
<g
   id="g30"
   transform="translate(-89.6,-100.4)">
</g>
<g
   id="g32"
   transform="translate(-89.6,-100.4)">
</g>
<g
   id="g34"
   transform="translate(-89.6,-100.4)">
</g>
<g
   id="g36"
   transform="translate(-89.6,-100.4)">
</g>
<g
   id="g38"
   transform="translate(-89.6,-100.4)">
</g>
<g
   id="g40"
   transform="translate(-89.6,-100.4)">
</g>
<g
   id="g42"
   transform="translate(-89.6,-100.4)">
</g>
<g
   id="g44"
   transform="translate(-89.6,-100.4)">
</g>
<g
   id="g46"
   transform="translate(-89.6,-100.4)">
</g>
<g
   id="g48"
   transform="translate(-89.6,-100.4)">
</g>
<g
   id="g50"
   transform="translate(-89.6,-100.4)">
</g>
<g
   id="g52"
   transform="translate(-89.6,-100.4)">
</g>
</svg>