<?xml version="1.0" encoding="UTF-8" standalone="no"?>
<!-- Generator: Adobe Illustrator 16.0.0, SVG Export Plug-In . SVG Version: 6.00 Build 0)  -->

<svg
   xmlns:dc="http://purl.org/dc/elements/1.1/"
   xmlns:cc="http://creativecommons.org/ns#"
   xmlns:rdf="http://www.w3.org/1999/02/22-rdf-syntax-ns#"
   xmlns:svg="http://www.w3.org/2000/svg"
   xmlns="http://www.w3.org/2000/svg"
   xmlns:sodipodi="http://sodipodi.sourceforge.net/DTD/sodipodi-0.dtd"
   xmlns:inkscape="http://www.inkscape.org/namespaces/inkscape"
   version="1.1"
   x="0px"
   y="0px"
   width="628.33508"
   height="283.06329"
   viewBox="0 0 628.33507 283.06328"
   enable-background="new 0 0 841.89 595.28"
   xml:space="preserve"
   id="svg68"
   sodipodi:docname="yellow_dinosaur.svg"
   inkscape:version="0.92.4 (5da689c313, 2019-01-14)"
   inkscape:export-filename="C:\Users\trains\ubuntu\VSCodeProjects\BucketGame\yellow_dinosaur.png"
   inkscape:export-xdpi="138.91"
   inkscape:export-ydpi="138.91"><metadata
   id="metadata74"><rdf:RDF><cc:Work
       rdf:about=""><dc:format>image/svg+xml</dc:format><dc:type
         rdf:resource="http://purl.org/dc/dcmitype/StillImage" /><dc:title></dc:title></cc:Work></rdf:RDF></metadata><defs
   id="defs72">
	
	
	

	
	
	

		
	
		
	
		
	<filter
   style="color-interpolation-filters:sRGB"
   inkscape:label="Colorize"
   id="filter1761"><feComposite
     in2="SourceGraphic"
     operator="arithmetic"
     k1="0"
     k2="2.73438"
     result="composite1"
     id="feComposite1747"
     k3="0"
     k4="0" /><feColorMatrix
     in="composite1"
     values="1"
     type="saturate"
     result="colormatrix1"
     id="feColorMatrix1749" /><feFlood
     flood-opacity="1"
     flood-color="rgb(255,255,0)"
     result="flood1"
     id="feFlood1751" /><feBlend
     in="flood1"
     in2="colormatrix1"
     mode="multiply"
     result="blend1"
     id="feBlend1753" /><feBlend
     in2="blend1"
     mode="screen"
     result="blend2"
     id="feBlend1755" /><feColorMatrix
     in="blend2"
     values="1"
     type="saturate"
     result="colormatrix2"
     id="feColorMatrix1757" /><feComposite
     in="colormatrix2"
     in2="SourceGraphic"
     operator="in"
     result="composite2"
     id="feComposite1759" /></filter><filter
   style="color-interpolation-filters:sRGB"
   inkscape:label="Colorize"
   id="filter1777"><feComposite
     in2="SourceGraphic"
     operator="arithmetic"
     k1="0"
     k2="2.73438"
     result="composite1"
     id="feComposite1763"
     k3="0"
     k4="0" /><feColorMatrix
     in="composite1"
     values="1"
     type="saturate"
     result="colormatrix1"
     id="feColorMatrix1765" /><feFlood
     flood-opacity="1"
     flood-color="rgb(255,255,0)"
     result="flood1"
     id="feFlood1767" /><feBlend
     in="flood1"
     in2="colormatrix1"
     mode="multiply"
     result="blend1"
     id="feBlend1769" /><feBlend
     in2="blend1"
     mode="screen"
     result="blend2"
     id="feBlend1771" /><feColorMatrix
     in="blend2"
     values="1"
     type="saturate"
     result="colormatrix2"
     id="feColorMatrix1773" /><feComposite
     in="colormatrix2"
     in2="SourceGraphic"
     operator="in"
     result="composite2"
     id="feComposite1775" /></filter><filter
   style="color-interpolation-filters:sRGB"
   inkscape:label="Colorize"
   id="filter1793"><feComposite
     in2="SourceGraphic"
     operator="arithmetic"
     k1="0"
     k2="2.73438"
     result="composite1"
     id="feComposite1779"
     k3="0"
     k4="0" /><feColorMatrix
     in="composite1"
     values="1"
     type="saturate"
     result="colormatrix1"
     id="feColorMatrix1781" /><feFlood
     flood-opacity="1"
     flood-color="rgb(255,255,0)"
     result="flood1"
     id="feFlood1783" /><feBlend
     in="flood1"
     in2="colormatrix1"
     mode="multiply"
     result="blend1"
     id="feBlend1785" /><feBlend
     in2="blend1"
     mode="screen"
     result="blend2"
     id="feBlend1787" /><feColorMatrix
     in="blend2"
     values="1"
     type="saturate"
     result="colormatrix2"
     id="feColorMatrix1789" /><feComposite
     in="colormatrix2"
     in2="SourceGraphic"
     operator="in"
     result="composite2"
     id="feComposite1791" /></filter><filter
   style="color-interpolation-filters:sRGB"
   inkscape:label="Colorize"
   id="filter1809"><feComposite
     in2="SourceGraphic"
     operator="arithmetic"
     k1="0"
     k2="2.73438"
     result="composite1"
     id="feComposite1795"
     k3="0"
     k4="0" /><feColorMatrix
     in="composite1"
     values="1"
     type="saturate"
     result="colormatrix1"
     id="feColorMatrix1797" /><feFlood
     flood-opacity="1"
     flood-color="rgb(255,255,0)"
     result="flood1"
     id="feFlood1799" /><feBlend
     in="flood1"
     in2="colormatrix1"
     mode="multiply"
     result="blend1"
     id="feBlend1801" /><feBlend
     in2="blend1"
     mode="screen"
     result="blend2"
     id="feBlend1803" /><feColorMatrix
     in="blend2"
     values="1"
     type="saturate"
     result="colormatrix2"
     id="feColorMatrix1805" /><feComposite
     in="colormatrix2"
     in2="SourceGraphic"
     operator="in"
     result="composite2"
     id="feComposite1807" /></filter><filter
   style="color-interpolation-filters:sRGB"
   inkscape:label="Colorize"
   id="filter1825"><feComposite
     in2="SourceGraphic"
     operator="arithmetic"
     k1="0"
     k2="2.73438"
     result="composite1"
     id="feComposite1811"
     k3="0"
     k4="0" /><feColorMatrix
     in="composite1"
     values="1"
     type="saturate"
     result="colormatrix1"
     id="feColorMatrix1813" /><feFlood
     flood-opacity="1"
     flood-color="rgb(255,255,0)"
     result="flood1"
     id="feFlood1815" /><feBlend
     in="flood1"
     in2="colormatrix1"
     mode="multiply"
     result="blend1"
     id="feBlend1817" /><feBlend
     in2="blend1"
     mode="screen"
     result="blend2"
     id="feBlend1819" /><feColorMatrix
     in="blend2"
     values="1"
     type="saturate"
     result="colormatrix2"
     id="feColorMatrix1821" /><feComposite
     in="colormatrix2"
     in2="SourceGraphic"
     operator="in"
     result="composite2"
     id="feComposite1823" /></filter><filter
   style="color-interpolation-filters:sRGB"
   inkscape:label="Colorize"
   id="filter1841"><feComposite
     in2="SourceGraphic"
     operator="arithmetic"
     k1="0"
     k2="2.73438"
     result="composite1"
     id="feComposite1827"
     k3="0"
     k4="0" /><feColorMatrix
     in="composite1"
     values="1"
     type="saturate"
     result="colormatrix1"
     id="feColorMatrix1829" /><feFlood
     flood-opacity="1"
     flood-color="rgb(255,255,0)"
     result="flood1"
     id="feFlood1831" /><feBlend
     in="flood1"
     in2="colormatrix1"
     mode="multiply"
     result="blend1"
     id="feBlend1833" /><feBlend
     in2="blend1"
     mode="screen"
     result="blend2"
     id="feBlend1835" /><feColorMatrix
     in="blend2"
     values="1"
     type="saturate"
     result="colormatrix2"
     id="feColorMatrix1837" /><feComposite
     in="colormatrix2"
     in2="SourceGraphic"
     operator="in"
     result="composite2"
     id="feComposite1839" /></filter></defs><sodipodi:namedview
   pagecolor="#ffffff"
   bordercolor="#666666"
   borderopacity="1"
   objecttolerance="10"
   gridtolerance="10"
   guidetolerance="10"
   inkscape:pageopacity="0"
   inkscape:pageshadow="2"
   inkscape:window-width="1920"
   inkscape:window-height="1017"
   id="namedview70"
   showgrid="false"
   inkscape:zoom="1.4451139"
   inkscape:cx="148.14662"
   inkscape:cy="187.65805"
   inkscape:window-x="-8"
   inkscape:window-y="-8"
   inkscape:window-maximized="1"
   inkscape:current-layer="svg68"
   fit-margin-top="0"
   fit-margin-left="0"
   fit-margin-right="0"
   fit-margin-bottom="0" />
<path
   d="m 527.25301,134.09924 c 28.667,6.666 74.667,6 92.667,33.333 18.666,29.333 1.333,69.333 -27.334,83.333 -34.666,16.667 -74,8.667 -110.666,7.334 -8.667,0 -18.667,-1.334 -27.334,0.666 26,-4.666 51.334,-4.666 77.334,-8 26.666,-3.333 65.333,-20 66.666,-50.666 1.334,-35.334 -47.333,-26.667 -68.666,-25.334 -27.334,1.334 -63.334,9.334 -89.334,-1.333 l 3.334,1.333 c -11.334,-9.333 -24,30.667 -25.334,38 -2.666,14 -5.333,27.334 -12,40.667 -7.333,14.667 -17.333,16 -32.666,16 -4,-14 11.333,-25.333 4.666,-40.667 -6.666,-16 -21.333,-16 -36,-15.333 -30.666,0.667 -60.666,11.333 -91.333,12.667 -4.667,0 -9.333,0 -14,0 l 3.333,0.666 c -2.667,11.334 -16.667,14 -24,20.667 -11.333,10.667 -4.667,30.667 -18.667,34 -18.666,4.667 -19.333,-7.333 -16.666,-21.333 4.667,-23.334 24,-36 10.667,-60 l 1.333,0.666 c -16,-20 -15.333,-48 -15.333,-72 l 0.667,2 c -0.667,-6.666 -1.333,-14 -4,-20.666 -9.333,-28.667005 -36,-52.667005 -63.333,-64.000005 -14.667995,-5.334 -53.333995,-15.334 -63.333995,3.333 l 2,-0.667 c 5.333,7.333 5.333,18.667 1.333,26.667 -4,6 -10.667,8 -14.667,14 -4.667,5.333 -4,10 -5.333,16.000005 -3.333,12 -24.0000002,28.667 -29.3330002,7.333 -1.33299999,-6.666 4,-11.333 4,-18.000005 0,-6.667 -4.667,-12 -5.33299999,-18.667 -1.334,-15.333 15.33300019,-19.333 15.33300019,-31.333 l 0.667,3.333 c 0.667,-14 24,-28.667 34.667,-35.333 18,-9.9999998 38,-13.33299984 57.999995,-11.99999984 34.667,2.00000004 68.667,19.33299984 91.333,45.33299984 10,12.667 21.333,34 36.667,39.333 14.667,5.333 28,-3.333 40,-10 32,-17.333 69.333,-20 103.333,-7.333 18.666,6 35.333,16.667 50.666,28.667 4.667,3.334005 26.667,23.334005 29.333,20.000005"
   id="path2"
   inkscape:connector-curvature="0"
   style="fill:#ecec00;fill-opacity:1" /><path
   d="m 334.61501,213.82224 c -15.362,10.277 -17.695,56.61 -1.695,52.962 13.694,-3.123 17,-3.352 21.553,-19.489 2.413,-8.552 15.447,-31.881 19.447,-37.548"
   id="path6"
   inkscape:connector-curvature="0"
   style="fill:#ecec00;fill-opacity:1" /><path
   d="m 229.14701,230.56124 c -3.795,24.862 -13.229,52.732 16.569,46.776 21.205,-4.238 12.717,-15.572 14.076,-30.854 1.25,-12.864 6.586,-24.861 11.795,-36.737"
   id="path10"
   inkscape:connector-curvature="0"
   style="fill:#ecec00;fill-opacity:1" />
<g
   id="g53"
   transform="translate(-134.74699,-202.23476)">
		<g
   id="g51">
			<path
   inkscape:connector-curvature="0"
   id="path15"
   d="m 152.065,250.269 c 0.968,-11.31 12.427,-19.79 20.827,-25.956 10.632,-7.804 21.872,-13.939 34.644,-17.51 28.729,-8.033 60.48,-2.527 86.79,10.628 12.45,6.225 23.828,14.535 33.784,24.239 8.628,8.411 14.71,18.736 21.997,28.246 6.519,8.509 14.167,16.432 24.83,19.204 11.643,3.027 23.358,-3.209 33.168,-8.697 19.114,-10.692 39.567,-16.971 61.556,-17.473 22.742,-0.519 45.612,6.1 65.682,16.526 14.208,7.381 26.878,17.186 39.182,27.332 4.715,3.888 9.479,7.82 14.685,11.04 1.724,1.065 4.82,3.08 6.725,1.341 0.657,-0.601 -0.762,-0.778 -1.199,-0.379 -2.362,2.158 -17.253,-11.3 -19.084,-12.804 -7.47,-6.136 -14.978,-12.112 -22.979,-17.565 -22.829,-15.56 -49.819,-25.565 -77.559,-26.46 -13.247,-0.428 -26.496,1.522 -39.196,5.228 -13.354,3.897 -24.783,11.016 -37.169,17.042 -7.791,3.79 -16.104,5.724 -24.636,3.505 -6.405,-1.665 -11.691,-6.19 -16.19,-10.823 -8.156,-8.398 -14.113,-18.669 -21.169,-27.945 -11.729,-15.417 -29.739,-27.208 -47.134,-35.148 -17.614,-8.04 -36.798,-11.818 -56.122,-11.596 -19.407,0.223 -37.968,5.863 -54.194,16.415 -10.727,6.977 -27.483,17.525 -28.7,31.739 -0.063,0.712 1.409,0.482 1.461,-0.129 z" />
			<path
   inkscape:connector-curvature="0"
   id="path17"
   d="m 574.908,376.131 c 24.01,9.487 51.263,4.787 76.163,2.396 17.245,-1.655 35.433,-4.039 52.739,-2.517 8.104,0.713 16.73,2.748 22.742,8.57 6.592,6.384 6.958,16.508 5.037,24.909 -5.021,21.958 -29.507,34.099 -49.18,39.783 -12.621,3.647 -25.895,4.493 -38.926,5.546 -16.112,1.302 -32.242,2.293 -48.238,4.71 -0.648,0.103 -1.297,0.205 -1.944,0.309 -2.326,-0.047 -2.571,0.306 -0.734,1.056 1.693,-0.27 3.418,-0.346 5.127,-0.438 3.991,-0.215 8.016,0.033 12.005,0.197 7.366,0.304 14.715,0.529 22.073,1.031 13.905,0.948 27.818,2.275 41.77,2.231 24.301,-0.077 50.874,-3.935 69.277,-21.217 15.194,-14.269 23.297,-36.393 19.21,-56.979 -5.872,-29.587 -35.798,-38.827 -61.781,-43.471 -15.15,-2.708 -30.337,-4.724 -45.401,-7.937 -21.416,-4.568 -42.422,-10.856 -63.755,-15.777 -0.58,-0.134 -1.718,0.728 -0.85,0.928 28.033,6.466 55.598,15.063 84.023,19.766 21.629,3.577 44.799,5.199 64.188,16.376 20.943,12.074 27.192,36.792 20.418,59.026 -3.566,11.705 -10.839,22.261 -20.059,30.222 -10.92,9.428 -25.447,13.868 -39.433,16.226 -18.712,3.154 -37.925,1.729 -56.733,0.361 -9.098,-0.662 -18.235,-1.537 -27.36,-1.617 -8.763,-0.078 -17.406,-1.066 -26.077,0.715 -0.725,0.149 -0.786,1.105 0.051,0.959 15.979,-2.799 32.136,-4.006 48.295,-5.234 13.099,-0.995 26.411,-1.732 39.269,-4.578 18.514,-4.098 38.137,-12.964 49.71,-28.54 9.006,-12.119 11.773,-32.141 -1.936,-41.919 -12.174,-8.685 -30.555,-7.029 -44.588,-5.977 -14.405,1.08 -28.793,2.301 -43.17,3.715 -20.187,1.985 -41.789,3.863 -61.082,-3.761 -0.571,-0.223 -1.695,0.596 -0.85,0.93 z" />
			<path
   inkscape:connector-curvature="0"
   id="path19"
   d="m 149.935,247.064 c -0.317,7.78 -7.093,12.475 -11.411,18.23 -5.182,6.907 -4.451,14.249 -1.289,21.874 2.43,5.858 3.442,10.689 1.059,16.798 -1.479,3.794 -2.891,7.065 -2.353,11.228 0.674,5.207 5,10.936 10.687,10.564 5.371,-0.351 9.869,-3.646 13.53,-7.363 5.556,-5.641 6.491,-11.587 7.989,-19.043 2.259,-11.239 14.775,-13.501 19.138,-22.91 3.753,-8.094 2.985,-18.387 -1.954,-25.752 -0.34,-0.508 -1.73,0.024 -1.331,0.62 5.346,7.973 6.064,20.933 -0.463,28.518 -5.333,6.198 -12.64,8.963 -16.053,16.959 -1.253,2.936 -1.4,6.358 -1.92,9.471 -0.59,3.533 -2.456,6.634 -4.596,9.443 -3.684,4.834 -10.437,10.629 -16.959,8.604 -3.48,-1.08 -5.194,-5.012 -6.241,-8.134 -1.76,-5.25 1.245,-9.939 2.881,-14.762 2.614,-7.701 -2.707,-14.513 -4.371,-21.755 -3.31,-14.402 14.587,-19.692 15.119,-32.72 0.03,-0.718 -1.437,-0.478 -1.462,0.13 z" />
			<path
   inkscape:connector-curvature="0"
   id="path21"
   d="m 314.058,332.806 c -1.944,-19.447 -8.988,-36.198 -21.495,-51.241 -11.635,-13.994 -26.893,-25.02 -43.408,-32.52 -11.634,-5.283 -25.377,-7.993 -38.074,-8.637 -10.573,-0.536 -23.338,1.126 -29.103,11.194 -0.39,0.682 1.082,0.645 1.376,0.131 6.666,-11.642 22.719,-11.091 34.282,-9.728 12.397,1.461 24.806,4.901 35.963,10.502 15.283,7.671 28.885,18.809 39.612,32.095 11.485,14.226 17.591,30.529 19.396,48.593 0.064,0.618 1.517,0.272 1.451,-0.389 z" />
			<path
   inkscape:connector-curvature="0"
   id="path23"
   d="m 311.935,331.064 c -0.011,24.699 -0.538,51.73 15.399,72.245 0.378,0.487 1.764,-0.063 1.331,-0.619 -15.833,-20.382 -15.279,-47.226 -15.268,-71.755 0.001,-0.724 -1.461,-0.475 -1.462,0.129 z" />
			<path
   inkscape:connector-curvature="0"
   id="path25"
   d="m 326.001,402.644 c 4.901,9.21 5.654,18.336 2.083,28.134 -3.05,8.369 -7.875,15.958 -10.842,24.38 -3.114,8.837 -7.593,27.816 6.008,29.924 5.357,0.83 12.217,-0.728 16.004,-4.73 4.333,-4.578 4.664,-12.533 6.144,-18.312 1.241,-4.846 3.37,-9.449 7.217,-12.771 3.16,-2.728 7.105,-4.533 10.714,-6.571 5.754,-3.25 10.897,-7.146 12.735,-13.761 0.181,-0.65 -1.298,-0.466 -1.463,0.129 -2.303,8.29 -10.209,11.858 -17.112,15.761 -5.146,2.909 -9.052,6.247 -11.606,11.657 -2.755,5.836 -3.073,12.494 -5.125,18.562 -2.704,7.994 -13.528,11.892 -20.972,7.736 -5.513,-3.077 -4.359,-11.874 -3.658,-16.964 1.135,-8.246 4.345,-15.794 7.971,-23.214 2.988,-6.114 6.076,-12.173 7.426,-18.895 1.524,-7.59 -0.636,-14.999 -4.193,-21.684 -0.282,-0.53 -1.673,-0.023 -1.331,0.619 z" />
			<path
   inkscape:connector-curvature="0"
   id="path27"
   d="m 371.927,428.831 c 17.522,0 34.283,-1.784 51.506,-5.019 18.816,-3.534 37.32,-7.009 56.492,-7.76 14.994,-0.587 29.95,2.55 33.987,19.229 3.085,12.744 -9.152,23.648 -5.97,36.579 0.069,0.281 0.423,0.303 0.651,0.303 10.284,-0.031 20.59,-0.646 28.116,-8.472 4.69,-4.877 7.283,-11.768 9.624,-17.971 2.907,-7.705 4.737,-15.786 6.379,-23.839 1.581,-7.758 13.035,-53.794 25.391,-44.482 0.478,0.359 1.77,-0.316 1.127,-0.801 -10.697,-8.062 -19.608,16.978 -21.943,23.15 -7.714,20.396 -6.928,45.041 -20.978,62.65 -3.48,4.362 -8.384,6.711 -13.736,7.845 -2.726,0.577 -5.553,0.717 -8.328,0.839 -1.359,0.061 -2.722,0.068 -4.083,0.082 -1.943,0.02 -1.43,-4.81 -1.395,-5.767 0.384,-10.264 7.881,-18.567 6.818,-29.182 -1.008,-10.065 -9.253,-17.653 -18.579,-20.07 -10.809,-2.802 -23.689,-1.104 -34.573,0.065 -14.45,1.551 -28.691,4.725 -42.965,7.37 -15.848,2.937 -31.3,4.254 -47.395,4.254 -0.802,0.003 -1.133,0.997 -0.146,0.997 z" />
			<path
   inkscape:connector-curvature="0"
   id="path29"
   d="m 362.602,441.731 c -1.239,9.25 -4.29,18.999 -2.91,28.38 1.238,8.422 8.939,10.562 16.381,10.531 9.695,-0.039 18.271,-2.763 19.217,-13.394 0.507,-5.703 -0.106,-11.454 0.38,-17.179 0.797,-9.362 3.148,-18.445 7.017,-27.005 0.331,-0.731 -1.13,-0.675 -1.376,-0.131 -5.058,11.19 -7.525,23.338 -7.455,35.616 0.024,4.224 0.349,8.478 -0.616,12.628 -1.654,7.118 -9.562,8.01 -15.663,8.42 -9.542,0.642 -16.347,-3.206 -16.732,-13.104 -0.324,-8.307 2.123,-16.709 3.219,-24.893 0.095,-0.698 -1.38,-0.479 -1.462,0.131 z" />
			<path
   inkscape:connector-curvature="0"
   id="path31"
   d="m 466.067,417.478 c -8.896,8.795 -8.475,22.634 -9.588,34.19 -0.682,7.073 -1.107,16.46 7.915,17.714 9.945,1.382 18.445,-1.663 22.489,-11.127 2.62,-6.132 4.258,-12.48 7.302,-18.469 3.52,-6.922 7.822,-13.417 11.835,-20.054 0.404,-0.668 -1.07,-0.636 -1.375,-0.131 -5.802,9.594 -12.23,18.986 -16.028,29.609 -1.421,3.973 -2.518,8.048 -4.472,11.808 -3.382,6.508 -10.352,7.857 -17.116,7.604 -11.252,-0.421 -9.418,-11.464 -8.888,-19.53 0.694,-10.562 1.119,-23.321 9.125,-31.236 0.638,-0.63 -0.772,-0.799 -1.199,-0.378 z" />
			<path
   inkscape:connector-curvature="0"
   id="path33"
   d="m 594.733,318.811 c -2.362,2.158 -17.253,-11.3 -19.084,-12.804 -7.47,-6.136 -14.978,-12.112 -22.979,-17.565 -22.829,-15.56 -49.819,-25.565 -77.559,-26.46 -13.247,-0.428 -26.496,1.522 -39.196,5.228 -13.354,3.897 -24.783,11.016 -37.169,17.042 -7.791,3.79 -16.104,5.724 -24.636,3.505 -6.405,-1.665 -11.691,-6.19 -16.19,-10.823 -8.156,-8.398 -14.113,-18.669 -21.169,-27.945 -11.729,-15.417 -29.739,-27.208 -47.134,-35.148 -17.614,-8.04 -36.798,-11.818 -56.122,-11.596 -19.407,0.223 -37.968,5.863 -54.194,16.415 -10.727,6.977 -27.483,17.525 -28.7,31.739 -0.061,0.712 1.411,0.482 1.463,-0.129 0.968,-11.31 12.427,-19.79 20.827,-25.956 10.632,-7.804 21.872,-13.939 34.644,-17.51 28.729,-8.033 60.48,-2.527 86.79,10.628 12.45,6.225 23.828,14.535 33.784,24.239 8.628,8.411 14.71,18.736 21.997,28.246 6.519,8.509 14.167,16.432 24.83,19.204 11.643,3.027 23.358,-3.209 33.168,-8.697 19.114,-10.692 39.567,-16.971 61.556,-17.473 22.742,-0.519 45.612,6.1 65.682,16.526 14.208,7.381 26.878,17.186 39.182,27.332 4.715,3.888 9.479,7.82 14.685,11.04 1.724,1.065 4.82,3.08 6.725,1.341 0.656,-0.601 -0.763,-0.779 -1.201,-0.379 z" />
			<path
   inkscape:connector-curvature="0"
   id="path35"
   d="m 574.908,376.131 c 24.01,9.487 51.263,4.787 76.163,2.396 17.245,-1.655 35.433,-4.039 52.739,-2.517 8.104,0.713 16.73,2.748 22.742,8.57 6.592,6.384 6.958,16.508 5.037,24.909 -5.021,21.958 -29.507,34.099 -49.18,39.783 -12.621,3.647 -25.895,4.493 -38.926,5.546 -16.112,1.302 -32.242,2.293 -48.238,4.71 -0.648,0.103 -1.297,0.205 -1.944,0.309 -2.326,-0.047 -2.571,0.306 -0.734,1.056 1.693,-0.27 3.418,-0.346 5.127,-0.438 3.991,-0.215 8.016,0.033 12.005,0.197 7.366,0.304 14.715,0.529 22.073,1.031 13.905,0.948 27.818,2.275 41.77,2.231 24.301,-0.077 50.874,-3.935 69.277,-21.217 15.194,-14.269 23.297,-36.393 19.21,-56.979 -5.872,-29.587 -35.798,-38.827 -61.781,-43.471 -15.15,-2.708 -30.337,-4.724 -45.401,-7.937 -21.416,-4.568 -42.422,-10.856 -63.755,-15.777 -0.58,-0.134 -1.718,0.728 -0.85,0.928 28.033,6.466 55.598,15.063 84.023,19.766 21.629,3.577 44.799,5.199 64.188,16.376 20.943,12.074 27.192,36.792 20.418,59.026 -3.566,11.705 -10.839,22.261 -20.059,30.222 -10.92,9.428 -25.447,13.868 -39.433,16.226 -18.712,3.154 -37.925,1.729 -56.733,0.361 -9.098,-0.662 -18.235,-1.537 -27.36,-1.617 -8.763,-0.078 -17.406,-1.066 -26.077,0.715 -0.725,0.149 -0.786,1.105 0.051,0.959 15.979,-2.799 32.136,-4.006 48.295,-5.234 13.099,-0.995 26.411,-1.732 39.269,-4.578 18.514,-4.098 38.137,-12.964 49.71,-28.54 9.006,-12.119 11.773,-32.141 -1.936,-41.919 -12.174,-8.685 -30.555,-7.029 -44.588,-5.977 -14.405,1.08 -28.793,2.301 -43.17,3.715 -20.187,1.985 -41.789,3.863 -61.082,-3.761 -0.571,-0.223 -1.695,0.596 -0.85,0.93 z" />
			<path
   inkscape:connector-curvature="0"
   id="path37"
   d="m 149.935,247.064 c -0.317,7.78 -7.093,12.475 -11.411,18.23 -5.182,6.907 -4.451,14.249 -1.289,21.874 2.43,5.858 3.442,10.689 1.059,16.798 -1.479,3.794 -2.891,7.065 -2.353,11.228 0.674,5.207 5,10.936 10.687,10.564 5.371,-0.351 9.869,-3.646 13.53,-7.363 5.556,-5.641 6.491,-11.587 7.989,-19.043 2.259,-11.239 14.775,-13.501 19.138,-22.91 3.753,-8.094 2.985,-18.387 -1.954,-25.752 -0.34,-0.508 -1.73,0.024 -1.331,0.62 5.346,7.973 6.064,20.933 -0.463,28.518 -5.333,6.198 -12.64,8.963 -16.053,16.959 -1.253,2.936 -1.4,6.358 -1.92,9.471 -0.59,3.533 -2.456,6.634 -4.596,9.443 -3.684,4.834 -10.437,10.629 -16.959,8.604 -3.48,-1.08 -5.194,-5.012 -6.241,-8.134 -1.76,-5.25 1.245,-9.939 2.881,-14.762 2.614,-7.701 -2.707,-14.513 -4.371,-21.755 -3.31,-14.402 14.587,-19.692 15.119,-32.72 0.03,-0.718 -1.437,-0.478 -1.462,0.13 z" />
			<path
   inkscape:connector-curvature="0"
   id="path39"
   d="m 314.058,332.806 c -1.944,-19.447 -8.988,-36.198 -21.495,-51.241 -11.635,-13.994 -26.893,-25.02 -43.408,-32.52 -11.634,-5.283 -25.377,-7.993 -38.074,-8.637 -10.573,-0.536 -23.338,1.126 -29.103,11.194 -0.39,0.682 1.082,0.645 1.376,0.131 6.666,-11.642 22.719,-11.091 34.282,-9.728 12.397,1.461 24.806,4.901 35.963,10.502 15.283,7.671 28.885,18.809 39.612,32.095 11.485,14.226 17.591,30.529 19.396,48.593 0.064,0.618 1.517,0.272 1.451,-0.389 z" />
			<path
   inkscape:connector-curvature="0"
   id="path41"
   d="m 311.935,331.064 c -0.011,24.699 -0.538,51.73 15.399,72.245 0.378,0.487 1.764,-0.063 1.331,-0.619 -15.833,-20.382 -15.279,-47.226 -15.268,-71.755 0.001,-0.724 -1.461,-0.475 -1.462,0.129 z" />
			<path
   inkscape:connector-curvature="0"
   id="path43"
   d="m 326.001,402.644 c 4.901,9.21 5.654,18.336 2.083,28.134 -3.05,8.369 -7.875,15.958 -10.842,24.38 -3.114,8.837 -7.593,27.816 6.008,29.924 5.357,0.83 12.217,-0.728 16.004,-4.73 4.333,-4.578 4.664,-12.533 6.144,-18.312 1.241,-4.846 3.37,-9.449 7.217,-12.771 3.16,-2.728 7.105,-4.533 10.714,-6.571 5.754,-3.25 10.897,-7.146 12.735,-13.761 0.181,-0.65 -1.298,-0.466 -1.463,0.129 -2.303,8.29 -10.209,11.858 -17.112,15.761 -5.146,2.909 -9.052,6.247 -11.606,11.657 -2.755,5.836 -3.073,12.494 -5.125,18.562 -2.704,7.994 -13.528,11.892 -20.972,7.736 -5.513,-3.077 -4.359,-11.874 -3.658,-16.964 1.135,-8.246 4.345,-15.794 7.971,-23.214 2.988,-6.114 6.076,-12.173 7.426,-18.895 1.524,-7.59 -0.636,-14.999 -4.193,-21.684 -0.282,-0.53 -1.673,-0.023 -1.331,0.619 z" />
			<path
   inkscape:connector-curvature="0"
   id="path45"
   d="m 371.927,428.831 c 17.522,0 34.283,-1.784 51.506,-5.019 18.816,-3.534 37.32,-7.009 56.492,-7.76 14.994,-0.587 29.95,2.55 33.987,19.229 3.085,12.744 -9.152,23.648 -5.97,36.579 0.069,0.281 0.423,0.303 0.651,0.303 10.284,-0.031 20.59,-0.646 28.116,-8.472 4.69,-4.877 7.283,-11.768 9.624,-17.971 2.907,-7.705 4.737,-15.786 6.379,-23.839 1.581,-7.758 13.035,-53.794 25.391,-44.482 0.478,0.359 1.77,-0.316 1.127,-0.801 -10.697,-8.062 -19.608,16.978 -21.943,23.15 -7.714,20.396 -6.928,45.041 -20.978,62.65 -3.48,4.362 -8.384,6.711 -13.736,7.845 -2.726,0.577 -5.553,0.717 -8.328,0.839 -1.359,0.061 -2.722,0.068 -4.083,0.082 -1.943,0.02 -1.43,-4.81 -1.395,-5.767 0.384,-10.264 7.881,-18.567 6.818,-29.182 -1.008,-10.065 -9.253,-17.653 -18.579,-20.07 -10.809,-2.802 -23.689,-1.104 -34.573,0.065 -14.45,1.551 -28.691,4.725 -42.965,7.37 -15.848,2.937 -31.3,4.254 -47.395,4.254 -0.802,0.003 -1.133,0.997 -0.146,0.997 z" />
			<path
   inkscape:connector-curvature="0"
   id="path47"
   d="m 362.602,441.731 c -1.239,9.25 -4.29,18.999 -2.91,28.38 1.238,8.422 8.939,10.562 16.381,10.531 9.695,-0.039 18.271,-2.763 19.217,-13.394 0.507,-5.703 -0.106,-11.454 0.38,-17.179 0.797,-9.362 3.148,-18.445 7.017,-27.005 0.331,-0.731 -1.13,-0.675 -1.376,-0.131 -5.058,11.19 -7.525,23.338 -7.455,35.616 0.024,4.224 0.349,8.478 -0.616,12.628 -1.654,7.118 -9.562,8.01 -15.663,8.42 -9.542,0.642 -16.347,-3.206 -16.732,-13.104 -0.324,-8.307 2.123,-16.709 3.219,-24.893 0.095,-0.698 -1.38,-0.479 -1.462,0.131 z" />
			<path
   inkscape:connector-curvature="0"
   id="path49"
   d="m 466.067,417.478 c -8.896,8.795 -8.475,22.634 -9.588,34.19 -0.682,7.073 -1.107,16.46 7.915,17.714 9.945,1.382 18.445,-1.663 22.489,-11.127 2.62,-6.132 4.258,-12.48 7.302,-18.469 3.52,-6.922 7.822,-13.417 11.835,-20.054 0.404,-0.668 -1.07,-0.636 -1.375,-0.131 -5.802,9.594 -12.23,18.986 -16.028,29.609 -1.421,3.973 -2.518,8.048 -4.472,11.808 -3.382,6.508 -10.352,7.857 -17.116,7.604 -11.252,-0.421 -9.418,-11.464 -8.888,-19.53 0.694,-10.562 1.119,-23.321 9.125,-31.236 0.638,-0.63 -0.772,-0.799 -1.199,-0.378 z" />
		</g>
	</g><g
   id="g59"
   transform="translate(-134.74699,-202.23476)">
		<g
   id="g57">
			<path
   inkscape:connector-curvature="0"
   id="path55"
   d="m 144.677,283.653 c 0.607,0.628 1.033,1.39 1.61,2.041 0.767,0.863 1.784,1.359 2.886,1.655 0.732,0.196 2.316,-0.045 2.298,-1.111 -0.017,-1.005 -0.185,-1.815 -0.643,-2.707 -0.447,-0.869 -0.642,-1.928 -1.579,-2.363 -1.627,-0.756 -4.618,1.421 -3.239,3.153 0.865,1.085 3.609,-0.096 2.646,-1.306 -0.021,-0.026 -0.029,0.056 -0.029,0.056 -0.11,0.296 -1.09,0.112 -1.07,0.127 -0.113,-0.159 -0.227,-0.317 -0.339,-0.476 0.444,1.269 1.287,2.327 1.311,3.708 0.766,-0.371 1.532,-0.741 2.298,-1.111 -0.83,-0.222 -1.551,-0.509 -2.108,-1.181 -0.486,-0.585 -0.863,-1.239 -1.395,-1.791 -0.525,-0.544 -1.311,-0.583 -1.979,-0.254 -0.469,0.231 -1.193,1.016 -0.668,1.56 z" />
		</g>
	</g><g
   id="g65"
   transform="translate(-134.74699,-202.23476)">
		<g
   id="g63">
			<path
   inkscape:connector-curvature="0"
   id="path61"
   d="m 152.611,323.899 c 4.122,-6.339 7.234,-13.24 6.791,-20.947 -0.045,-0.789 -1.511,-0.584 -1.472,0.096 0.43,7.489 -2.537,14.227 -6.542,20.387 -0.508,0.781 0.841,1.053 1.223,0.464 z" />
		</g>
	</g>
</svg>